<mxfile host="app.diagrams.net" modified="2021-08-27T03:52:19.147Z" agent="5.0 (Windows)" etag="1BcUrNxxgyRJ9-e4h-cy" version="15.0.2" type="github">
  <diagram id="-h8CS0RQun0GpcUelzVF" name="Page-1">
    <mxGraphModel dx="2138" dy="541" grid="1" gridSize="10" guides="1" tooltips="1" connect="1" arrows="1" fold="1" page="1" pageScale="1" pageWidth="1100" pageHeight="4000" math="0" shadow="0">
      <root>
        <mxCell id="0" />
        <mxCell id="1" parent="0" />
        <mxCell id="Yqb2accabi_V30I44o50-86" value="" style="rounded=0;whiteSpace=wrap;html=1;fontSize=12;" vertex="1" parent="1">
          <mxGeometry x="80" y="600" width="490" height="90" as="geometry" />
        </mxCell>
        <mxCell id="Yqb2accabi_V30I44o50-32" value="" style="rounded=0;whiteSpace=wrap;html=1;" vertex="1" parent="1">
          <mxGeometry x="-40" y="226.25" width="190" height="47.5" as="geometry" />
        </mxCell>
        <mxCell id="Yqb2accabi_V30I44o50-4" value="" style="ellipse;whiteSpace=wrap;html=1;aspect=fixed;" vertex="1" parent="1">
          <mxGeometry x="80" y="70" width="150" height="150" as="geometry" />
        </mxCell>
        <mxCell id="Yqb2accabi_V30I44o50-5" value="" style="ellipse;shape=cloud;whiteSpace=wrap;html=1;" vertex="1" parent="1">
          <mxGeometry x="110" y="110" width="40" height="30" as="geometry" />
        </mxCell>
        <mxCell id="Yqb2accabi_V30I44o50-6" value="" style="ellipse;shape=cloud;whiteSpace=wrap;html=1;" vertex="1" parent="1">
          <mxGeometry x="120" y="150" width="40" height="30" as="geometry" />
        </mxCell>
        <mxCell id="Yqb2accabi_V30I44o50-7" value="" style="ellipse;shape=cloud;whiteSpace=wrap;html=1;" vertex="1" parent="1">
          <mxGeometry x="160" y="120" width="40" height="30" as="geometry" />
        </mxCell>
        <mxCell id="Yqb2accabi_V30I44o50-8" value="" style="endArrow=classic;html=1;exitX=0.5;exitY=1;exitDx=0;exitDy=0;" edge="1" parent="1" source="Yqb2accabi_V30I44o50-4" target="Yqb2accabi_V30I44o50-9">
          <mxGeometry width="50" height="50" relative="1" as="geometry">
            <mxPoint x="500" y="300" as="sourcePoint" />
            <mxPoint x="155" y="290" as="targetPoint" />
          </mxGeometry>
        </mxCell>
        <mxCell id="Yqb2accabi_V30I44o50-9" value="Pedido" style="text;html=1;strokeColor=none;fillColor=none;align=center;verticalAlign=middle;whiteSpace=wrap;rounded=0;" vertex="1" parent="1">
          <mxGeometry x="135" y="290" width="40" height="20" as="geometry" />
        </mxCell>
        <mxCell id="Yqb2accabi_V30I44o50-10" value="Cuando el vale no termina su camino hasta el pago va a la secci칩n de:" style="text;html=1;strokeColor=none;fillColor=none;align=center;verticalAlign=middle;whiteSpace=wrap;rounded=0;" vertex="1" parent="1">
          <mxGeometry x="280" y="380" width="140" height="30" as="geometry" />
        </mxCell>
        <mxCell id="Yqb2accabi_V30I44o50-11" value="" style="endArrow=classic;html=1;" edge="1" parent="1">
          <mxGeometry width="50" height="50" relative="1" as="geometry">
            <mxPoint x="230" y="320" as="sourcePoint" />
            <mxPoint x="310" y="320" as="targetPoint" />
          </mxGeometry>
        </mxCell>
        <mxCell id="Yqb2accabi_V30I44o50-12" value="VALES" style="text;html=1;strokeColor=none;fillColor=none;align=center;verticalAlign=middle;whiteSpace=wrap;rounded=0;" vertex="1" parent="1">
          <mxGeometry x="330" y="310" width="40" height="20" as="geometry" />
        </mxCell>
        <mxCell id="Yqb2accabi_V30I44o50-14" value="Una vez que se confirman los productos a comprar (de manera autom치tica)" style="text;html=1;strokeColor=none;fillColor=none;align=center;verticalAlign=middle;whiteSpace=wrap;rounded=0;" vertex="1" parent="1">
          <mxGeometry x="-40" y="240" width="190" height="20" as="geometry" />
        </mxCell>
        <mxCell id="Yqb2accabi_V30I44o50-16" value="" style="endArrow=classic;html=1;" edge="1" parent="1">
          <mxGeometry width="50" height="50" relative="1" as="geometry">
            <mxPoint x="390" y="320" as="sourcePoint" />
            <mxPoint x="500" y="320" as="targetPoint" />
          </mxGeometry>
        </mxCell>
        <mxCell id="Yqb2accabi_V30I44o50-17" value="PAGADO" style="text;html=1;strokeColor=none;fillColor=none;align=center;verticalAlign=middle;whiteSpace=wrap;rounded=0;" vertex="1" parent="1">
          <mxGeometry x="420" y="300" width="40" height="20" as="geometry" />
        </mxCell>
        <mxCell id="Yqb2accabi_V30I44o50-18" value="BOLETA" style="text;html=1;strokeColor=none;fillColor=none;align=center;verticalAlign=middle;whiteSpace=wrap;rounded=0;" vertex="1" parent="1">
          <mxGeometry x="530" y="310" width="40" height="20" as="geometry" />
        </mxCell>
        <mxCell id="Yqb2accabi_V30I44o50-19" value="&lt;div&gt;se genera un c칩digo&lt;/div&gt;&lt;div&gt;que va asociado al VALE&lt;br&gt;&lt;/div&gt;" style="text;html=1;strokeColor=none;fillColor=none;align=center;verticalAlign=middle;whiteSpace=wrap;rounded=0;" vertex="1" parent="1">
          <mxGeometry x="100" y="320" width="140" height="30" as="geometry" />
        </mxCell>
        <mxCell id="Yqb2accabi_V30I44o50-20" value="" style="endArrow=classic;html=1;exitX=0.5;exitY=1;exitDx=0;exitDy=0;" edge="1" parent="1" source="Yqb2accabi_V30I44o50-12">
          <mxGeometry width="50" height="50" relative="1" as="geometry">
            <mxPoint x="280" y="380" as="sourcePoint" />
            <mxPoint x="350" y="370" as="targetPoint" />
          </mxGeometry>
        </mxCell>
        <mxCell id="Yqb2accabi_V30I44o50-21" value="VALES NO DOCUMENTADOS" style="text;html=1;strokeColor=none;fillColor=none;align=center;verticalAlign=middle;whiteSpace=wrap;rounded=0;" vertex="1" parent="1">
          <mxGeometry x="330" y="433" width="40" height="20" as="geometry" />
        </mxCell>
        <mxCell id="Yqb2accabi_V30I44o50-22" value="" style="endArrow=classic;html=1;" edge="1" parent="1">
          <mxGeometry width="50" height="50" relative="1" as="geometry">
            <mxPoint x="590" y="320" as="sourcePoint" />
            <mxPoint x="650" y="320" as="targetPoint" />
          </mxGeometry>
        </mxCell>
        <mxCell id="Yqb2accabi_V30I44o50-23" value="DOCUMENTOS EMITIDOS" style="text;html=1;strokeColor=none;fillColor=none;align=center;verticalAlign=middle;whiteSpace=wrap;rounded=0;" vertex="1" parent="1">
          <mxGeometry x="684" y="312" width="40" height="20" as="geometry" />
        </mxCell>
        <mxCell id="Yqb2accabi_V30I44o50-25" value="" style="endArrow=classic;html=1;" edge="1" parent="1">
          <mxGeometry width="50" height="50" relative="1" as="geometry">
            <mxPoint x="710" y="350" as="sourcePoint" />
            <mxPoint x="710" y="380" as="targetPoint" />
          </mxGeometry>
        </mxCell>
        <mxCell id="Yqb2accabi_V30I44o50-26" value="En esta secci칩n se pueden conocer todas las ventas realizadas, mensuales, anuales, etc" style="text;html=1;strokeColor=none;fillColor=none;align=center;verticalAlign=middle;whiteSpace=wrap;rounded=0;" vertex="1" parent="1">
          <mxGeometry x="857.5" y="175" width="140" height="30" as="geometry" />
        </mxCell>
        <mxCell id="Yqb2accabi_V30I44o50-30" value="" style="rounded=0;whiteSpace=wrap;html=1;" vertex="1" parent="1">
          <mxGeometry x="160" y="226.25" width="120" height="47.5" as="geometry" />
        </mxCell>
        <mxCell id="Yqb2accabi_V30I44o50-27" value="Ingreso de ventas manuales" style="text;html=1;strokeColor=none;fillColor=none;align=center;verticalAlign=middle;whiteSpace=wrap;rounded=0;" vertex="1" parent="1">
          <mxGeometry x="165" y="242.5" width="110" height="15" as="geometry" />
        </mxCell>
        <mxCell id="Yqb2accabi_V30I44o50-34" value="" style="endArrow=classic;html=1;" edge="1" parent="1">
          <mxGeometry width="50" height="50" relative="1" as="geometry">
            <mxPoint x="190" y="130" as="sourcePoint" />
            <mxPoint x="240" y="80" as="targetPoint" />
          </mxGeometry>
        </mxCell>
        <mxCell id="Yqb2accabi_V30I44o50-35" value="PRODUCTOS" style="text;html=1;strokeColor=none;fillColor=none;align=center;verticalAlign=middle;whiteSpace=wrap;rounded=0;" vertex="1" parent="1">
          <mxGeometry x="240" y="60" width="40" height="20" as="geometry" />
        </mxCell>
        <mxCell id="Yqb2accabi_V30I44o50-36" value="" style="endArrow=classic;html=1;" edge="1" parent="1">
          <mxGeometry width="50" height="50" relative="1" as="geometry">
            <mxPoint x="290" y="257.5" as="sourcePoint" />
            <mxPoint x="310" y="258" as="targetPoint" />
          </mxGeometry>
        </mxCell>
        <mxCell id="Yqb2accabi_V30I44o50-37" value="VALES" style="text;html=1;strokeColor=none;fillColor=none;align=center;verticalAlign=middle;whiteSpace=wrap;rounded=0;" vertex="1" parent="1">
          <mxGeometry x="320" y="250" width="40" height="20" as="geometry" />
        </mxCell>
        <mxCell id="Yqb2accabi_V30I44o50-40" value="" style="endArrow=classic;html=1;" edge="1" parent="1">
          <mxGeometry width="50" height="50" relative="1" as="geometry">
            <mxPoint x="370" y="257.5" as="sourcePoint" />
            <mxPoint x="490" y="258" as="targetPoint" />
          </mxGeometry>
        </mxCell>
        <mxCell id="Yqb2accabi_V30I44o50-41" value="BOLETA" style="text;html=1;strokeColor=none;fillColor=none;align=center;verticalAlign=middle;whiteSpace=wrap;rounded=0;" vertex="1" parent="1">
          <mxGeometry x="510" y="250" width="40" height="20" as="geometry" />
        </mxCell>
        <mxCell id="Yqb2accabi_V30I44o50-42" value="" style="endArrow=classic;html=1;" edge="1" parent="1">
          <mxGeometry width="50" height="50" relative="1" as="geometry">
            <mxPoint x="570" y="260" as="sourcePoint" />
            <mxPoint x="680" y="300" as="targetPoint" />
          </mxGeometry>
        </mxCell>
        <mxCell id="Yqb2accabi_V30I44o50-43" value="GESTI칍N DE VENTAS" style="text;html=1;strokeColor=none;fillColor=none;align=center;verticalAlign=middle;whiteSpace=wrap;rounded=0;" vertex="1" parent="1">
          <mxGeometry x="665" y="180" width="90" height="20" as="geometry" />
        </mxCell>
        <mxCell id="Yqb2accabi_V30I44o50-44" value="En esta secci칩n se puede hacer un filtro de todas las ventas realizadas en el d칤a o rango de fechas" style="text;html=1;strokeColor=none;fillColor=none;align=center;verticalAlign=middle;whiteSpace=wrap;rounded=0;" vertex="1" parent="1">
          <mxGeometry x="650" y="400" width="140" height="30" as="geometry" />
        </mxCell>
        <mxCell id="Yqb2accabi_V30I44o50-45" value="" style="endArrow=classic;html=1;" edge="1" parent="1" target="Yqb2accabi_V30I44o50-26">
          <mxGeometry width="50" height="50" relative="1" as="geometry">
            <mxPoint x="750" y="190" as="sourcePoint" />
            <mxPoint x="800" y="140" as="targetPoint" />
          </mxGeometry>
        </mxCell>
        <mxCell id="Yqb2accabi_V30I44o50-46" value="" style="endArrow=classic;html=1;" edge="1" parent="1">
          <mxGeometry width="50" height="50" relative="1" as="geometry">
            <mxPoint x="710" y="220" as="sourcePoint" />
            <mxPoint x="710" y="290" as="targetPoint" />
          </mxGeometry>
        </mxCell>
        <mxCell id="Yqb2accabi_V30I44o50-47" value="MEN칔" style="text;html=1;strokeColor=none;fillColor=none;align=center;verticalAlign=middle;whiteSpace=wrap;rounded=0;fontSize=8;" vertex="1" parent="1">
          <mxGeometry x="690" y="200" width="40" height="20" as="geometry" />
        </mxCell>
        <mxCell id="Yqb2accabi_V30I44o50-48" value="SUB-MEN칔" style="text;html=1;strokeColor=none;fillColor=none;align=center;verticalAlign=middle;whiteSpace=wrap;rounded=0;fontSize=8;" vertex="1" parent="1">
          <mxGeometry x="680" y="332" width="60" height="20" as="geometry" />
        </mxCell>
        <mxCell id="Yqb2accabi_V30I44o50-49" value="" style="endArrow=classic;html=1;fontSize=8;" edge="1" parent="1">
          <mxGeometry width="50" height="50" relative="1" as="geometry">
            <mxPoint x="310" y="70" as="sourcePoint" />
            <mxPoint x="350" y="70" as="targetPoint" />
          </mxGeometry>
        </mxCell>
        <mxCell id="Yqb2accabi_V30I44o50-51" value="INVENTARIO" style="text;html=1;strokeColor=none;fillColor=none;align=center;verticalAlign=middle;whiteSpace=wrap;rounded=0;" vertex="1" parent="1">
          <mxGeometry x="410" y="60" width="40" height="20" as="geometry" />
        </mxCell>
        <mxCell id="Yqb2accabi_V30I44o50-53" value="" style="endArrow=classic;html=1;fontSize=8;" edge="1" parent="1">
          <mxGeometry width="50" height="50" relative="1" as="geometry">
            <mxPoint x="240" y="60" as="sourcePoint" />
            <mxPoint x="240" y="40" as="targetPoint" />
          </mxGeometry>
        </mxCell>
        <mxCell id="Yqb2accabi_V30I44o50-54" value="" style="endArrow=classic;html=1;fontSize=8;" edge="1" parent="1">
          <mxGeometry width="50" height="50" relative="1" as="geometry">
            <mxPoint x="290" y="60" as="sourcePoint" />
            <mxPoint x="290" y="40" as="targetPoint" />
          </mxGeometry>
        </mxCell>
        <mxCell id="Yqb2accabi_V30I44o50-56" value="n춿 ART" style="text;html=1;strokeColor=none;fillColor=none;align=center;verticalAlign=middle;whiteSpace=wrap;rounded=0;fontSize=12;" vertex="1" parent="1">
          <mxGeometry x="190" y="20" width="70" height="20" as="geometry" />
        </mxCell>
        <mxCell id="Yqb2accabi_V30I44o50-57" value="C칍DIGO ART" style="text;html=1;strokeColor=none;fillColor=none;align=center;verticalAlign=middle;whiteSpace=wrap;rounded=0;fontSize=12;" vertex="1" parent="1">
          <mxGeometry x="260" y="20" width="90" height="20" as="geometry" />
        </mxCell>
        <mxCell id="Yqb2accabi_V30I44o50-58" value="movimiento de producto" style="text;html=1;strokeColor=none;fillColor=none;align=center;verticalAlign=middle;whiteSpace=wrap;rounded=0;" vertex="1" parent="1">
          <mxGeometry x="365" y="120" width="140" height="20" as="geometry" />
        </mxCell>
        <mxCell id="Yqb2accabi_V30I44o50-59" value="ingreso de inventario f칤sico" style="text;html=1;strokeColor=none;fillColor=none;align=center;verticalAlign=middle;whiteSpace=wrap;rounded=0;" vertex="1" parent="1">
          <mxGeometry x="365" y="80" width="140" height="20" as="geometry" />
        </mxCell>
        <mxCell id="Yqb2accabi_V30I44o50-60" value="borrar inventario f칤sico" style="text;html=1;strokeColor=none;fillColor=none;align=center;verticalAlign=middle;whiteSpace=wrap;rounded=0;" vertex="1" parent="1">
          <mxGeometry x="365" y="100" width="140" height="20" as="geometry" />
        </mxCell>
        <mxCell id="Yqb2accabi_V30I44o50-61" value="buscar inventario por&amp;nbsp; producto" style="text;html=1;strokeColor=none;fillColor=none;align=center;verticalAlign=middle;whiteSpace=wrap;rounded=0;" vertex="1" parent="1">
          <mxGeometry x="350" y="140" width="190" height="20" as="geometry" />
        </mxCell>
        <mxCell id="Yqb2accabi_V30I44o50-62" value="PLANILLA DE CAJA" style="text;html=1;strokeColor=none;fillColor=none;align=center;verticalAlign=middle;whiteSpace=wrap;rounded=0;" vertex="1" parent="1">
          <mxGeometry x="260" y="840" width="120" height="20" as="geometry" />
        </mxCell>
        <mxCell id="Yqb2accabi_V30I44o50-63" value="APERTURA DE CAJA" style="text;html=1;strokeColor=none;fillColor=none;align=center;verticalAlign=middle;whiteSpace=wrap;rounded=0;" vertex="1" parent="1">
          <mxGeometry x="150" y="610" width="120" height="20" as="geometry" />
        </mxCell>
        <mxCell id="Yqb2accabi_V30I44o50-64" value="ARQUEO" style="text;html=1;strokeColor=none;fillColor=none;align=center;verticalAlign=middle;whiteSpace=wrap;rounded=0;" vertex="1" parent="1">
          <mxGeometry x="755" y="630" width="120" height="20" as="geometry" />
        </mxCell>
        <mxCell id="Yqb2accabi_V30I44o50-65" value="CIERRE DE CAJA" style="text;html=1;strokeColor=none;fillColor=none;align=center;verticalAlign=middle;whiteSpace=wrap;rounded=0;" vertex="1" parent="1">
          <mxGeometry x="400" y="610" width="120" height="20" as="geometry" />
        </mxCell>
        <mxCell id="Yqb2accabi_V30I44o50-66" value="VENTAS EFECTIVO" style="text;html=1;strokeColor=none;fillColor=none;align=center;verticalAlign=middle;whiteSpace=wrap;rounded=0;" vertex="1" parent="1">
          <mxGeometry x="755" y="660" width="120" height="20" as="geometry" />
        </mxCell>
        <mxCell id="Yqb2accabi_V30I44o50-67" value="VENTAS CR칄DITO" style="text;html=1;strokeColor=none;fillColor=none;align=center;verticalAlign=middle;whiteSpace=wrap;rounded=0;" vertex="1" parent="1">
          <mxGeometry x="755" y="680" width="120" height="20" as="geometry" />
        </mxCell>
        <mxCell id="Yqb2accabi_V30I44o50-68" value="VENTAS D칄BITO" style="text;html=1;strokeColor=none;fillColor=none;align=center;verticalAlign=middle;whiteSpace=wrap;rounded=0;" vertex="1" parent="1">
          <mxGeometry x="755" y="700" width="120" height="20" as="geometry" />
        </mxCell>
        <mxCell id="Yqb2accabi_V30I44o50-71" value="" style="strokeWidth=2;html=1;shape=mxgraph.flowchart.annotation_2;align=left;labelPosition=right;pointerEvents=1;fontSize=12;rotation=-90;" vertex="1" parent="1">
          <mxGeometry x="865" y="610" width="50" height="280" as="geometry" />
        </mxCell>
        <mxCell id="Yqb2accabi_V30I44o50-72" value="" style="strokeWidth=2;html=1;shape=mxgraph.flowchart.annotation_2;align=left;labelPosition=right;pointerEvents=1;fontSize=12;rotation=-180;" vertex="1" parent="1">
          <mxGeometry x="875" y="690" width="50" height="20" as="geometry" />
        </mxCell>
        <mxCell id="Yqb2accabi_V30I44o50-73" value="debe calzar con caja" style="text;html=1;strokeColor=none;fillColor=none;align=center;verticalAlign=middle;whiteSpace=wrap;rounded=0;fontSize=12;" vertex="1" parent="1">
          <mxGeometry x="915" y="660" width="110" height="20" as="geometry" />
        </mxCell>
        <mxCell id="Yqb2accabi_V30I44o50-76" value="" style="endArrow=classic;html=1;fontSize=12;" edge="1" parent="1">
          <mxGeometry width="50" height="50" relative="1" as="geometry">
            <mxPoint x="875" y="670" as="sourcePoint" />
            <mxPoint x="905" y="670" as="targetPoint" />
          </mxGeometry>
        </mxCell>
        <mxCell id="Yqb2accabi_V30I44o50-77" value="debe calzar con transbank" style="text;html=1;strokeColor=none;fillColor=none;align=center;verticalAlign=middle;whiteSpace=wrap;rounded=0;fontSize=12;" vertex="1" parent="1">
          <mxGeometry x="925" y="700" width="80" height="20" as="geometry" />
        </mxCell>
        <mxCell id="Yqb2accabi_V30I44o50-79" value="EL TOTAL DEBE SER IGUAL AL TOTAL DE &quot;DOCUMENTOS EMITIDOS&quot; DEL D칈A" style="text;html=1;strokeColor=none;fillColor=none;align=center;verticalAlign=middle;whiteSpace=wrap;rounded=0;" vertex="1" parent="1">
          <mxGeometry x="755" y="790" width="242.5" height="20" as="geometry" />
        </mxCell>
        <mxCell id="Yqb2accabi_V30I44o50-81" value="" style="endArrow=classic;html=1;fontSize=12;" edge="1" parent="1">
          <mxGeometry width="50" height="50" relative="1" as="geometry">
            <mxPoint x="889.5" y="820" as="sourcePoint" />
            <mxPoint x="890" y="860" as="targetPoint" />
          </mxGeometry>
        </mxCell>
        <mxCell id="Yqb2accabi_V30I44o50-82" value="AUTOM츼TICAMENTE ESE TOTAL DEBE APARECER EN EL ARQUEO DE ESE D칈A" style="text;html=1;strokeColor=none;fillColor=none;align=center;verticalAlign=middle;whiteSpace=wrap;rounded=0;" vertex="1" parent="1">
          <mxGeometry x="768.75" y="880" width="242.5" height="20" as="geometry" />
        </mxCell>
        <mxCell id="Yqb2accabi_V30I44o50-83" value="En el caso del software deber칤a generarse autom치ticamente la apertura del d칤a a las 00:00" style="text;html=1;strokeColor=none;fillColor=none;align=center;verticalAlign=middle;whiteSpace=wrap;rounded=0;fontSize=12;" vertex="1" parent="1">
          <mxGeometry x="100" y="640" width="220" height="20" as="geometry" />
        </mxCell>
        <mxCell id="Yqb2accabi_V30I44o50-84" value="y cerrarse a las 23:59" style="text;html=1;strokeColor=none;fillColor=none;align=center;verticalAlign=middle;whiteSpace=wrap;rounded=0;fontSize=12;" vertex="1" parent="1">
          <mxGeometry x="350" y="630" width="220" height="20" as="geometry" />
        </mxCell>
        <mxCell id="Yqb2accabi_V30I44o50-85" value="Si es tienda con horario deber칤a poder ingresar al sistema de ventas realizando la apertura" style="text;html=1;strokeColor=none;fillColor=none;align=center;verticalAlign=middle;whiteSpace=wrap;rounded=0;fontSize=12;" vertex="1" parent="1">
          <mxGeometry x="135" y="720" width="130" height="20" as="geometry" />
        </mxCell>
        <mxCell id="Yqb2accabi_V30I44o50-87" value="" style="endArrow=classic;html=1;fontSize=12;" edge="1" parent="1">
          <mxGeometry width="50" height="50" relative="1" as="geometry">
            <mxPoint x="10" y="640" as="sourcePoint" />
            <mxPoint x="60" y="640" as="targetPoint" />
          </mxGeometry>
        </mxCell>
        <mxCell id="Yqb2accabi_V30I44o50-88" value="P치gina que opera 24 a 7" style="text;html=1;strokeColor=none;fillColor=none;align=center;verticalAlign=middle;whiteSpace=wrap;rounded=0;fontSize=12;" vertex="1" parent="1">
          <mxGeometry x="-120" y="640" width="130" height="20" as="geometry" />
        </mxCell>
        <mxCell id="Yqb2accabi_V30I44o50-89" value="ya que al momento de &quot;Cierre de caja&quot; se debe generar una:" style="text;html=1;strokeColor=none;fillColor=none;align=center;verticalAlign=middle;whiteSpace=wrap;rounded=0;fontSize=12;" vertex="1" parent="1">
          <mxGeometry x="400" y="720" width="130" height="20" as="geometry" />
        </mxCell>
        <mxCell id="Yqb2accabi_V30I44o50-92" value="" style="strokeWidth=2;html=1;shape=mxgraph.flowchart.annotation_2;align=left;labelPosition=right;pointerEvents=1;fontSize=12;rotation=-90;" vertex="1" parent="1">
          <mxGeometry x="300" y="557.5" width="50" height="485" as="geometry" />
        </mxCell>
        <mxCell id="Yqb2accabi_V30I44o50-93" value="Este documento se genera de manera autom치tica, al contrario que el de arqueo que es de forma manual, pero son los mismos datos. ( Ventas en efectivo, d칠bito, cr칠dito)" style="text;html=1;strokeColor=none;fillColor=none;align=center;verticalAlign=middle;whiteSpace=wrap;rounded=0;fontSize=12;" vertex="1" parent="1">
          <mxGeometry x="147.5" y="880" width="345" height="20" as="geometry" />
        </mxCell>
        <mxCell id="Yqb2accabi_V30I44o50-97" value="" style="endArrow=classic;html=1;fontSize=12;entryX=0;entryY=0.75;entryDx=0;entryDy=0;" edge="1" parent="1" target="Yqb2accabi_V30I44o50-79">
          <mxGeometry width="50" height="50" relative="1" as="geometry">
            <mxPoint x="755" y="330" as="sourcePoint" />
            <mxPoint x="720" y="760" as="targetPoint" />
            <Array as="points">
              <mxPoint x="876" y="410" />
              <mxPoint x="710" y="660" />
            </Array>
          </mxGeometry>
        </mxCell>
        <mxCell id="Yqb2accabi_V30I44o50-100" value="NOTA: En arqueo se agregan los gastos del d칤a y se tienden a descontar del efectivo." style="text;html=1;strokeColor=none;fillColor=none;align=center;verticalAlign=middle;whiteSpace=wrap;rounded=0;fontSize=12;" vertex="1" parent="1">
          <mxGeometry x="810" y="920" width="160" height="60" as="geometry" />
        </mxCell>
      </root>
    </mxGraphModel>
  </diagram>
</mxfile>
